<?xml version="1.0" encoding="utf-8"?>
<svg version="1.1" id="Calque_1" xmlns="http://www.w3.org/2000/svg" xmlns:xlink="http://www.w3.org/1999/xlink" x="0px" y="0px"
	 width="100%" height="100%" viewBox="0 0 824 612" style="enable-background:new 0 0 824 612;" xml:space="preserve" >
<style type="text/css">
	<![CDATA[
		@font-face {
	    font-family: 'poppinsmedium';
	    src: url('../fonts/poppins-medium-webfont.woff2') format('woff2'),
	         url('../fonts/poppins-medium-webfont.woff') format('woff'),
	         url('../fonts/poppins-medium-webfont.ttf') format('truetype');
	    font-weight: normal;
	    font-style: normal;
		}
		.st1{font-family:'poppinsmedium';}
		.st0{fill:#0080C8;stroke:#1D1D1B;stroke-width:2;stroke-linecap:round;stroke-linejoin:round;stroke-miterlimit:10;transition: all .6s;cursor:pointer}
		.st0:hover{fill:#556E7A;}
		.st2{fill:#ffffff;cursor:pointer}
		.st3{font-size:14}
	]]>
</style>
<g id="regions">
	<polygon id="sion-les-mines" class="st0" points="159.625,272.812 153.403,215.478 150.383,214.162 150.383,213.95
		150.383,188.302 165.847,178.873 173.39,159.259 169.241,138.513 184.323,131.725 188.849,138.139 205.818,126.825 205.818,131.35
		217.13,131.725 227.878,148.133 252.768,140.967 295.571,161.334 302.924,158.691 315.368,162.607 321.591,208.667
		330.261,218.285 324.605,238.086 318.006,236.2 299.715,254.305 305.372,270.899 300.471,278.633 239.948,249.97 222.604,251.1
		199.03,269.959 	" onclick="parent.app.mapLinks('sion-les-mines')"/>
	<path id="rouge" class="st0" d="M390.41,199.45l19.8-22.629l14.707-0.286l-0.566-20.646l-24.889-2.829l-11.599-11.882h-4.237
		l-3.396,6.789l-16.403-3.113V107.8l-11.313-18.67L333.99,71.999l0.53-0.579l9.317-10.202h4.149v11.695h10.182l6.031-4.152
		c0,0,11.313,1.887,10.939,3.022c-0.376,1.13,7.163-8.678,7.163-8.678l15.087-2.639l64.859-2.739l0.283,41.3l76.364,22.63
		l-0.284,33.665l13.576,6.503l-9.332,23.762l-14.99-1.978h-16.687l-31.961,15.275l-15.271-6.788l-9.619,7.92v9.618l-12.158,17.539
		h-9.902l-0.281-8.488l-11.877-3.395l-8.768,8.772l-4.243-3.959v-4.526h-14.99L390.41,199.45z" onclick="parent.app.mapLinks('rouge')"/>
	<polygon id="soulvache" class="st0" points="462.246,57.729 473.846,31.42 472.428,20.105 467.905,8.789 432.834,8.789
		419.633,6.151 381.548,2 381.168,10.303 395.502,24.632 395.502,41.603 397.387,45.378 397.387,60.463 	" onclick="parent.app.mapLinks('soulvache')"/>
	<polygon id="ferce" class="st0" points="543.701,78.946 538.045,64.235 524.467,56.691 524.467,35.192 506.744,18.22
		496.943,18.22 496.561,28.784 490.906,28.784 482.984,20.107 472.43,20.107 473.842,31.421 462.248,57.729 462.527,99.033
		538.89,121.663 565.479,121.663 571.844,88.92 	" onclick="parent.app.mapLinks('ferce')"/>
	<polygon id="noyal-sur-brutz" class="st0" points="571.842,88.922 565.481,121.658 538.894,121.658 538.607,155.323
		552.185,161.825 568.969,169.277 582.163,169.277 593.477,160.599 598.758,139.292 587.445,124.583 592.913,96.387 	" onclick="parent.app.mapLinks('noyal-sur-brutz')"/>
	<polygon id="villepot" class="st0" points="662.303,190.023 671.535,189.267 680.027,205.125 694.543,200.397 694.543,187.194
		704.725,172.86 691.902,168.714 684.361,152.874 692.656,131.75 592.913,96.389 587.447,124.586 598.758,139.295 593.477,160.603
		616.859,161.736 636.658,160.038 647.781,173.428 663.998,173.05 668.333,180.596 662.303,185.497 	" onclick="parent.app.mapLinks('villepot')"/>
	<polygon id="soudan" class="st0" points="713.586,260.364 724.725,253.574 720.563,253.574 717.168,248.293 704.727,248.293
		691.152,234.715 685.492,223.024 677.193,228.307 677.193,206.052 680.031,205.123 671.535,189.271 662.301,190.021
		662.301,185.495 668.332,180.595 663.998,173.048 647.779,173.429 636.657,160.035 616.861,161.732 593.476,160.602
		582.354,169.276 568.875,169.184 552.091,161.922 543.604,183.797 559.164,202.849 571.418,272.435 592.729,280.356
		609.316,291.481 616.861,307.889 669.465,308.263 684.545,304.304 701.896,284.691 708.306,284.126" onclick="parent.app.mapLinks('soudan')"/>
	<polygon id="juigne-des-moutiers" class="st0" points="708.306,284.126 701.898,284.69 684.545,304.302 669.465,308.263
		616.861,307.887 616.861,320.805 678.892,332.686 752.988,359.84 762.04,390.393 792.955,394.627 791.835,393.506 795.607,376.533
		786.553,375.402 777.502,380.682 774.109,376.533 781.273,369.745 767.696,367.102 767.696,355.412 778.26,320.336 778.26,306
		761.29,299.592 761.29,291.67 772.223,293.553 772.223,288.652 750.352,274.318 757.895,245.654 731.12,253.574 724.729,253.574
		713.582,260.364 	" onclick="parent.app.mapLinks('juigne-des-moutiers')"/>
	<polygon id="la-chapelle-glain" class="st0" points="822,457.247 822,449.703 798.996,426.694 798.996,400.67 792.955,394.627
		762.042,390.393 760.345,405.103 682.564,439.045 683.176,496.848 683.982,496.848 707.739,507.789 733.008,507.033
		744.32,516.842 755.254,499.868 760.908,499.868 772.223,487.798 772.223,470.449 783.914,462.906 812.575,462.906 	" onclick="parent.app.mapLinks('la-chapelle-glain')"/>
	<polygon id="petit-auverne" class="st0" points="682.568,439.047 648.343,422.074 592.63,438.763 594.608,453.189 591.212,456.87
		586.973,452.625 581.597,452.91 580.752,469.319 593.475,479.782 592.63,494.49 599.133,494.49 614.69,491.381 629.396,491.664
		631.375,499.016 620.063,504.109 624.021,507.789 640.424,519.383 656.008,524.636 659.09,522.498 659.09,507.789 663.994,496.848
		683.18,496.848 	" onclick="parent.app.mapLinks('petit-auverne')"/>
	<polygon id="grand-auverne" class="st0" points="640.426,519.383 624.023,507.783 620.064,504.109 631.377,499.017 629.393,491.66
		614.688,491.378 599.133,494.492 592.626,494.492 593.479,479.782 580.748,469.312 540.873,484.873 548.789,504.109
		508.91,555.313 520.562,570.019 535.783,570.019 590.839,588.499 598.377,582.467 625.155,581.714 625.155,569.265
		640.615,554.179 640.615,535.321 656.005,524.639 	" onclick="parent.app.mapLinks('grand-auverne')"/>
	<polygon id="la-meilleraye-de-bretagne" class="st0" points="540.89,514.252 483.742,514.252 443.467,488.63 443.395,488.929
		415.486,504.391 423.406,512.69 423.781,523.251 438.49,550.405 435.096,558.701 428.688,562.852 428.688,570.017 431.328,576.056
		416.244,593.404 422.652,602.079 454.328,608.487 486.387,604.719 495.055,610 507.123,597.555 518.061,594.159 520.325,570.017
		520.564,570.017 508.917,555.309 	" onclick="parent.app.mapLinks('la-meilleraye-de-bretagne')"/>
	<polyline id="saint-julien-de-vouvantes" class="st0" points="682.568,439.047 648.343,422.074 678.889,332.688 752.992,359.841
		762.041,390.393 760.349,405.104 682.568,439.047 	" onclick="parent.app.mapLinks('saint-julien-de-vouvantes')"/>
	<polygon id="moisdon-la-riviere" class="st0" points="594.893,424.903 572.548,424.903 570.283,411.326 548.225,394.634
		547.943,380.49 530.687,374.832 532.386,366.064 529.275,361.253 518.528,360.975 519.376,341.738 510.323,332.686 492.225,333.25
		473.547,364.082 473.938,364.082 443.467,488.628 483.738,514.252 540.888,514.252 540.627,514.596 548.789,504.109
		540.87,484.873 580.752,469.319 581.597,452.91 586.973,452.625 591.212,456.872 594.608,453.191 592.631,438.766 601.176,436.204
			" onclick="parent.app.mapLinks('moisdon-la-riviere')"/>
	<polygon id="erbray" class="st0" points="571.418,272.434 592.721,280.353 609.313,291.479 616.86,307.886 616.86,320.807
		678.892,332.689 648.345,422.078 601.488,436.107 601.178,436.203 594.895,424.905 572.551,424.905 570.284,411.328
		548.225,394.636 547.939,380.491 530.689,374.834 532.387,366.066 529.273,361.257 518.525,360.977 519.377,341.74
		510.328,332.689 492.225,333.252 497.316,320.713 489.022,292.424 498.071,290.913 506.744,296.569 516.549,275.828
		532.387,275.828 543.701,269.794 549.732,269.794 559.541,276.205 569.721,275.828 	" onclick="parent.app.mapLinks('erbray')"/>
	<polyline id="chateaubriant" class="st0" points="489.021,292.423 498.069,290.915 506.748,296.573 516.549,275.825
		532.386,275.825 543.7,269.793 549.738,269.793 559.537,276.207 569.719,275.825 571.417,272.431 559.164,202.842 543.607,183.798
		542.852,185.591 527.861,183.608 511.178,183.608 479.216,198.882 463.943,192.093 454.324,200.015 454.324,209.632
		442.168,227.17 432.266,227.17 431.982,218.686 420.107,215.291 418.881,253.949 461.495,261.115 480.488,290.961 484.025,287.425
		489.021,292.423 	" onclick="parent.app.mapLinks('chateaubriant')"/>
	<polygon id="louisfert" class="st0" points="497.316,320.709 489.023,292.423 484.023,287.425 480.488,290.958 480.488,301.569
		477.8,302.7 471.297,295.625 467.903,295.911 465.641,301.569 461.396,301.569 455.174,298.175 440.469,297.89 425.48,312.885
		421.521,311.752 421.801,306.097 410.487,306.097 388.714,318.257 392.672,337.211 392.672,346.264 394.934,346.264
		398.328,342.305 400.165,344.141 402.003,370.307 420.154,385.818 430.57,364.082 473.543,364.082 492.229,333.25 	" onclick="parent.app.mapLinks('louisfert')"/>
	<polygon id="saint-vincent-des-landes" class="st0" points="366.843,407.461 396.634,393.126 417.376,391.62 420.154,385.816
		402.007,370.311 400.167,344.143 398.328,342.305 394.937,346.264 392.673,346.264 392.673,337.212 388.714,318.263
		380.793,322.223 326.116,322.598 310.279,300.722 301.228,299.212 299.721,304.493 260.125,380.681 276.403,399.33
		283.882,392.748 298.209,395.012 325.74,404.821 343.461,408.215 	" onclick="parent.app.mapLinks('saint-vincent-des-landes')"/>
	<polygon id="saint-aubin-des-chateaux" class="st0" points="301.228,299.21 310.277,300.718 326.116,322.598 380.793,322.219
		388.713,318.257 410.493,306.096 421.803,306.096 421.521,311.752 425.48,312.885 440.472,297.891 455.18,298.174 461.399,301.569
		465.641,301.569 467.903,295.912 471.297,295.627 477.805,302.7 480.488,301.569 480.488,290.959 461.499,261.115 418.883,253.949
		420.109,215.29 411.337,224.061 407.099,220.1 407.099,215.575 392.107,215.575 390.41,199.448 344.876,171.725 315.369,162.605
		321.591,208.668 330.266,218.286 324.609,238.087 318.007,236.199 299.721,254.305 305.378,270.901 300.473,278.631
		305.563,286.008 298.208,293.084 	" onclick="parent.app.mapLinks('saint-aubin-des-chateaux')"/>
	<polygon id="lusanger" class="st0" points="260.122,380.681 299.718,304.493 301.226,299.212 298.21,293.083 305.565,286.01
		300.473,278.632 239.95,249.968 222.602,251.1 199.032,269.958 159.627,272.812 155.286,285.442 196.395,362.95 	" onclick="parent.app.mapLinks('lusanger')"/>
	<path id="jans" class="st0" d="M251.826,430.09v-6.034l17.345,0.753l1.511-6.406l-11.313-9.813l0.752-7.162l14.33-0.382
		l1.951-1.716l-16.281-18.649l-63.727-17.727l-42.235,9.428l-36.957,49.409l-0.756,10.938l6.412,3.021v16.215
		c0,0-3.77,2.643-3.019,5.657c0.756,3.019,6.037,6.038,6.037,6.038h7.92l4.526,3.395l8.294-4.904c0,0,9.806-3.017,15.083-0.756
		c5.28,2.266,7.542,2.266,7.542,2.266l9.05-9.807l18.857-1.889l6.407,9.43H216l3.018-6.41l10.938,8.297l8.294-5.658h16.214
		l6.413-17.723L251.826,430.09z" onclick="parent.app.mapLinks('jans')"/>
	<path id="marsac-sur-don" class="st0" d="M117.202,421.791l-0.756,10.939l6.414,3.014v16.223c0,0-3.771,2.641-3.021,5.657
		c0.756,3.014,6.036,6.032,6.036,6.032l-3.773,3.586l6.223,7.354l0.188,21.498l-15.461,14.709h-8.485l-5.276,3.018l-12.259,0.754
		l-21.87,12.447l-28.474-0.189l-19.041-14.33L2,506.846l19.042-66.193l28.282-2.645l11.878,0.756l11.313,17.539l12.445,0.756
		l9.426-18.295l-2.64-6.787l9.052-10.186H117.202z" onclick="parent.app.mapLinks('marsac-sur-don')"/>
	<polygon id="derval" class="st0" points="40.652,262.627 31.976,253.199 26.51,260.738 30.279,272.62 50.078,286.389
		61.389,279.976 65.916,292.045 56.488,297.703 55.358,303.737 39.143,325.991 32.355,328.255 30.846,348.997 28.207,358.05
		32.731,368.988 31.602,386.717 30.846,392.376 37.256,400.295 36.126,419.531 48.57,426.32 49.326,438.01 61.205,438.765
		72.517,456.303 84.963,457.056 94.389,438.765 91.75,431.979 100.799,421.791 117.205,421.791 154.158,372.382 196.395,362.955
		155.287,285.447 58.56,261.685 55.358,257.726 49.326,258.857 	" onclick="parent.app.mapLinks('derval')"/>
	<polygon id="isse" class="st0" points="443.467,488.63 443.395,488.929 415.486,504.391 415.486,504.395 394.369,513.065
		372.875,507.406 360.807,509.67 354.018,497.225 348.742,497.982 341.954,487.797 327.247,490.059 325.359,486.666
		335.916,464.037 335.542,456.115 323.854,428.203 328.378,425.188 327.998,418.777 325.359,413.116 325.739,404.821
		343.461,408.215 366.842,407.459 396.633,393.126 417.375,391.62 420.154,385.816 420.152,385.818 430.57,364.082 473.543,364.082
			" onclick="parent.app.mapLinks('isse')"/>
	<polygon id="mouais" class="st0" points="153.404,215.479 159.626,272.812 159.627,272.812 155.287,285.442 155.29,285.447
		58.56,261.685 55.358,257.726 55.357,257.726 55.357,237.358 76.475,237.358 109.283,232.074 121.727,238.109 134.171,232.074
		138.322,223.401 150.383,215.104 	" onclick="parent.app.mapLinks('mouais')"/>
	<polygon id="ruffigne" class="st0" points="217.134,131.724 227.88,148.132 248.374,142.231 252.77,140.967 295.568,161.332
		302.921,158.688 315.369,162.605 344.876,171.725 390.41,199.449 410.209,176.821 424.915,176.536 424.35,155.888 399.46,153.059
		387.86,141.178 383.622,141.178 380.228,147.966 363.825,144.853 363.825,107.8 352.512,89.131 333.989,72 333.987,72
		311.787,96.294 283.503,96.294 281.993,92.525 272.192,92.525 265.404,104.591 237.496,99.312 231.275,105.538 220.152,105.538
		213.739,115.532 222.792,120.813 	" onclick="parent.app.mapLinks('ruffigne')"/>
</g>
<text transform="matrix(0.9999 0 0 1 69.6621 352.8721)" class="st1 st2 st3" onclick="parent.app.mapLinks('derval')">DERVAL</text>
<text transform="matrix(0.9999 0 0 1 37.5771 479.668)" class="st1 st2 st3" onclick="parent.app.mapLinks('marsac-sur-don')">Marsac-</text>
<text transform="matrix(0.9999 0 0 1 37.1152 496.0488)" class="st1 st2 st3" onclick="parent.app.mapLinks('marsac-sur-don')">sur-Don</text>
<text transform="matrix(0.9999 0 0 1 428.3926 246.001)" class="st1 st2 st3" onclick="parent.app.mapLinks('chateaubriant')">CHÂTEAUBRIANT</text>
<text transform="matrix(0.9999 0 0 1 564.9912 358.584)" class="st1 st2 st3" onclick="parent.app.mapLinks('erbray')">Erbray</text>
<text transform="matrix(0.9999 0 0 1 482.4268 82.8447)" class="st1 st2 st3" onclick="parent.app.mapLinks('ferce')">Fercé</text>
<text transform="matrix(0.9999 0 0 1 561.9121 532.0176)" class="st1 st2 st3" onclick="parent.app.mapLinks('grand-auverne')">Grand-</text>
<text transform="matrix(0.9999 0 0 1 556.6904 548.3994)" class="st1 st2 st3" onclick="parent.app.mapLinks('grand-auverne')">Auverné</text>
<text transform="matrix(0.9999 0 0 1 383.6382 448.5566)" class="st1 st2 st3" onclick="parent.app.mapLinks('isse')">Issé</text>
<text transform="matrix(0.9999 0 0 1 695.543 309.79)" class="st1 st2 st3" onclick="parent.app.mapLinks('juigne-des-moutiers')">Juigné-</text>
<text transform="matrix(0.9999 0 0 1 675.8477 326.1719)" class="st1 st2 st3" onclick="parent.app.mapLinks('juigne-des-moutiers')">des-Moutiers</text>
<text transform="matrix(0.9999 0 0 1 615.2188 463.9727)" class="st1 st2 st3" onclick="parent.app.mapLinks('petit-auverne')">Petit-</text>
<text transform="matrix(0.9999 0 0 1 605.0566 480.3535)" class="st1 st2 st3" onclick="parent.app.mapLinks('petit-auverne')">Auverné</text>
<text transform="matrix(0.9999 0 0 1 543.6855 137.7852)" class="st1 st2 st3" onclick="parent.app.mapLinks('noyal-sur-brutz')">Noyal-</text>
<text transform="matrix(0.9999 0 0 1 534.0684 154.1665)" class="st1 st2 st3" onclick="parent.app.mapLinks('noyal-sur-brutz')">sur-Brutz</text>
<text transform="matrix(0.9999 0 0 1 481.9512 433.9121)" class="st1 st2 st3" onclick="parent.app.mapLinks('moisdon-la-riviere')">Moisdon-</text>
<text transform="matrix(0.9999 0 0 1 481.1396 450.293)" class="st1 st2 st3" onclick="parent.app.mapLinks('moisdon-la-riviere')">la-Rivière</text>
<text transform="matrix(0.9999 0 0 1 412.4478 339.0527)" class="st1 st2 st3" onclick="parent.app.mapLinks('louisfert')">Louisfert</text>
<text transform="matrix(0.9999 0 0 1 701.4229 448.0244)" class="st1 st2 st3" onclick="parent.app.mapLinks('la-chapelle-glain')">La Chapelle-</text>
<text transform="matrix(0.9999 0 0 1 728.0195 464.4063)" class="st1 st2 st3" onclick="parent.app.mapLinks('la-chapelle-glain')">Glain</text>
<text transform="matrix(0.9999 0 0 1 85.0747 258.4756)" class="st1 st2 st3" onclick="parent.app.mapLinks('mouais')">Mouais</text>
<text transform="matrix(0.9999 0 0 1 284.7793 360.0967)" class="st1 st2 st3" onclick="parent.app.mapLinks('saint-vincent-des-landes')">Saint-Vincent-</text>
<text transform="matrix(0.9999 0 0 1 294.8584 376.4785)" class="st1 st2 st3" onclick="parent.app.mapLinks('saint-vincent-des-landes')">des-Landes</text>
<text transform="matrix(0.9999 0 0 1 175.5762 417.4316)" class="st1 st2 st3" onclick="parent.app.mapLinks('jans')">Jans</text>
<text transform="matrix(0.9999 0 0 1 197.96 315.2793)" class="st1 st2 st3" onclick="parent.app.mapLinks('lusanger')">Lusanger</text>
<text transform="matrix(0.9999 0 0 1 180.8252 208.7852)" class="st1 st2 st3" onclick="parent.app.mapLinks('sion-les-mines')">Sion-les-Mines</text>
<text transform="matrix(0.9999 0 0 1 439.5918 142.4053)" class="st1 st2 st3" onclick="parent.app.mapLinks('rouge')">Rougé</text>
<text transform="matrix(0.9999 0 0 1 275.7646 131.7783)" class="st1 st2 st3" onclick="parent.app.mapLinks('ruffigne')">Rufﬁgné</text>
<text transform="matrix(0.9999 0 0 1 324.0742 265.9385)" class="st1 st2 st3" onclick="parent.app.mapLinks('saint-aubin-des-chateaux')">Saint-Aubin-</text>
<text transform="matrix(0.9999 0 0 1 319.8608 282.3198)" class="st1 st2 st3" onclick="parent.app.mapLinks('saint-aubin-des-chateaux')">des-Châteaux</text>
<text transform="matrix(0.9999 0 0 1 684.7773 369.7861)" class="st1 st2 st3" onclick="parent.app.mapLinks('saint-julien-de-vouvantes')">Saint-</text>
<text transform="matrix(0.9999 0 0 1 669.7715 386.168)" class="st1 st2 st3" onclick="parent.app.mapLinks('saint-julien-de-vouvantes')">Julien-de-</text>
<text transform="matrix(0.9999 0 0 1 667.9805 402.5488)" class="st1 st2 st3" onclick="parent.app.mapLinks('saint-julien-de-vouvantes')">Vouvantes</text>
<text transform="matrix(0.9999 0 0 1 600.2402 239.8965)" class="st1 st2 st3" onclick="parent.app.mapLinks('soudan')">Soudan</text>
<text transform="matrix(0.9999 0 0 1 397.1895 30.3398)" class="st1 st2 st3" onclick="parent.app.mapLinks('soulvache')">Soulvache</text>
<text transform="matrix(0.9999 0 0 1 617.4023 146.0596)" class="st1 st2 st3" onclick="parent.app.mapLinks('villepot')">Villepot</text>
<text transform="matrix(0.9999 0 0 1 425.9043 527.9307)" class="st1 st2 st3" onclick="parent.app.mapLinks('la-meilleraye-de-bretagne')">La Meilleraye-</text>
<text transform="matrix(0.9999 0 0 1 460.042 547.3115)" class="st1 st2 st3" onclick="parent.app.mapLinks('la-meilleraye-de-bretagne')">de-</text>
<text transform="matrix(0.9999 0 0 1 437     570     )" class="st1 st2 st3" onclick="parent.app.mapLinks('la-meilleraye-de-bretagne')">Bretagne</text>
</svg>
